<svg width="24" height="24" xmlns="http://www.w3.org/2000/svg">
  <g clip-path="url(#a)" transform="matrix(1.33333 0 0 -1.33333 0 873.333)">
    <path d="M0 0c0 .25-.01.49-.01.74-.05 3.39-.14 6.87-.26 10.48-.04 1.16-.03 2.33 0 3.5.11 4.12-.58 17.03-13.08 23.7-10.29 5.49-22-1-22-1l-29-15s-24-13-45 5c-15.65 13.42-17 33-17 33l-3.85 58.52c-29.84-21.53-49.15-55.85-49.15-94.52 0-65.17 54.85-118 122.5-118 16.54 0 32.31 3.16 46.7 8.89h.01c2.5.99 4.95 2.06 7.36 3.21.06.84.13 1.67.19 2.5v.01c.52 6.67.97 13.19 1.24 19.39C-.39-38.12.35-20.67 0 0" style="fill:#52c2b4;fill-opacity:1;fill-rule:nonzero;stroke:none;stroke-width:28.4444" transform="matrix(.03516 0 0 .03516 8.432 647.427)" />
    <path d="M0 0c0-13.53-2.36-26.53-6.72-38.63-6.54-18.2-17.58-34.38-31.83-47.3l.83 12.07c.58 10.41 2.6 20.69 5.98 30.56 1.31 3.83 2.91 8.22 4.85 13.15v.01C-26-27.87-25.03-25.49-24-23c4.14 9.95 7.99 15.66 11.9 21.47 1.88 2.81 3.94 5.5 6.16 8.05l5.25 6.05C-.23 8.44 0 4.25 0 0" style="fill:#52c2b4;fill-opacity:1;fill-rule:nonzero;stroke:none;stroke-width:28.4444" transform="matrix(.03516 0 0 .03516 10.74 648.285)" />
    <path d="m0 0-26.72-29.14-.98-1.07s-2.25 5.5-7 12.38c-4.75 6.87-12 15.12-22 20.62-7.44 4.09-15.25 4.95-22.09 4.43-11.27-.85-19.91-5.43-19.91-5.43l-31-19s-11-6-20-1c-7.82 4.34-9 23-9 23l-5.53 63.16c15.01 6.33 31.6 9.84 49.03 9.84 13.94 0 27.33-2.24 39.82-6.38C-40.4 59.84-12.58 33.44 0 0" style="fill:#52c2b4;fill-opacity:1;fill-rule:nonzero;stroke:none;stroke-width:28.4444" transform="matrix(.03516 0 0 .03516 10.484 649.699)" />
    <path d="m0 0-15.96-67.31C-22.48-68.43-29.17-69-36-69c-66 0-119.5 53.5-119.5 119.5 0 37.23 17.02 70.48 43.7 92.39h.01c2.44 2.01 4.95 3.91 7.55 5.71-.06-.83-.13-1.66-.19-2.5-1.51-18.81-3.56-38.66-4.34-56.07-.05-.91 0-2.64.83-4.58.61-1.43 1.53-2.72 2.73-3.77 2.63-2.29 6.23-3.1 9.59-2.14l68.3 20.07c.82.24 1.69.02 2.29-.58.63-.63.82-1.56.5-2.39l-29.33-72.36c-1.35-3.33-1.06-7.09.79-10.16l.15-.26c1.85-3.08 4.98-5.17 8.53-5.71l42.41-5.88A2.287 2.287 0 0 0 0 0" style="fill:#e48277;fill-opacity:1;fill-rule:nonzero;stroke:none;stroke-width:28.4444" transform="matrix(.03516 0 0 .03516 12.006 639.426)" />
    <path d="M0 0c0-45.98-25.97-85.9-64.04-105.87L-46.25-40c.89 3.32.86 6.85-.34 10.07a16.004 16.004 0 0 1-13.3 10.32l-37.74 4.01a2.5 2.5 0 0 0-1.49.72c-.84.84-1.1 2.09-.66 3.19l32.62 82.32c1.85 4.78.61 10.28-3.28 13.81-3.3 2.99-8.02 3.83-12.27 2.52l-74.38-23.04a3.13 3.13 0 0 0-2.64.4 3.679 3.679 0 0 0-1.62 3.31l3.13 45.45c12.14 4.16 25.17 6.42 38.72 6.42C-53.5 119.5 0 66 0 0" style="fill:#e48277;fill-opacity:1;fill-rule:nonzero;stroke:none;stroke-width:28.4444" transform="matrix(.03516 0 0 .03516 14.941 641.201)" />
    <path d="M0 0c0-64.89-52.61-117.5-117.5-117.5-12.27 0-24.1 1.88-35.22 5.37 4.36 12.1 6.72 25.1 6.72 38.63 0 4.25-.23 8.44-.69 12.57L-102-9.5l14.76-39.04c1-2.65 4.11-4.83 6.95-4.89 2.35-.04 4.18 2.02 3.96 4.35L-82 10.5l12.61 16.12c2.42 3.09 2.84 7.43.72 10.74-3.05 4.75-9.3 5.48-13.32 2.09L-98 26.5l-56.08 6.63c-2.68.25-5.02-2.11-4.43-5.05.27-1.34 1.23-2.44 2.46-3.05l38.55-19.27-35.8-39.05c-12.58 33.44-40.4 59.84-75.38 71.41 15.84 46.18 59.63 79.38 111.18 79.38C-52.61 117.5 0 64.89 0 0" style="fill:#f1e35e;fill-opacity:1;fill-rule:nonzero;stroke:none;stroke-width:28.4444" transform="matrix(.03516 0 0 .03516 15.873 650.87)" />
    <path d="m0 0-18.65-20.49c-15.88 15.51-27.37 35.5-32.44 57.92 6.84.52 14.65-.34 22.09-4.43 10-5.5 17.25-13.75 22-20.62C-2.25 5.5 0 0 0 0" style="fill:#f1e35e;fill-opacity:1;fill-rule:nonzero;stroke:none;stroke-width:28.4444" transform="matrix(.03516 0 0 .03516 9.51 648.637)" />
    <path d="m0 0-12.61-16.12 5.67-59.58c.22-2.33-1.61-4.39-3.96-4.35-2.84.06-5.95 2.24-6.95 4.89l-14.76 39.04-44.69-51.43-5.25-6.05a80.099 80.099 0 0 1-6.16-8.05c-3.91-5.81-7.76-11.52-11.9-21.47-1.03-2.49-2-4.87-2.89-7.14v-.01c-1.94-4.93-3.54-9.32-4.85-13.15-3.38-9.87-5.4-20.15-5.98-30.56l-.83-12.07c-1.6-1.46-3.24-2.87-4.93-4.23 1.57.62 3.16 1.2 4.76 1.74l-3.13-45.45c-.09-1.32.53-2.58 1.62-3.31a3.13 3.13 0 0 1 2.64-.4l74.38 23.04c4.25 1.31 8.97.47 12.27-2.52 3.89-3.53 5.13-9.03 3.28-13.81l-32.62-82.32c-.44-1.1-.18-2.35.66-3.19.4-.4.93-.66 1.49-.72l37.74-4.01c5.97-.63 11.15-4.58 13.3-10.32 1.2-3.22 1.23-6.75.34-10.07l-17.79-65.87a117.948 117.948 0 0 0-35.42-11.94l15.96 67.31c0 1.15-.85 2.12-1.98 2.27L-85-343.97c-3.55.54-6.68 2.63-8.53 5.71l-.15.26a11.384 11.384 0 0 0-.79 10.16l29.33 72.36c.32.83.13 1.76-.5 2.39-.6.6-1.47.82-2.29.58l-68.3-20.07c-3.36-.96-6.96-.15-9.59 2.14-1.2 1.05-2.12 2.34-2.73 3.77-.83 1.94-.88 3.67-.83 4.58.78 17.41 2.83 37.26 4.34 56.07.06.84.13 1.67.19 2.5v.01c.52 6.67.97 13.19 1.24 19.39.96 21.46 1.7 38.91 1.35 59.58 0 .25-.01.49-.01.74-.05 3.39-.14 6.87-.26 10.48-.04 1.16-.03 2.33 0 3.5.11 4.12-.58 17.03-13.08 23.7-10.29 5.49-22-1-22-1l-29-15s-24-13-45 5c-15.65 13.42-17 33-17 33l-3.85 58.52c7.49 5.39 15.64 9.99 24.32 13.64l5.53-63.16s1.18-18.66 9-23c9-5 20 1 20 1l31 19s8.64 4.58 19.91 5.43c5.07-22.42 16.56-42.41 32.44-57.92l18.65 20.49.98 1.07 26.72 29.14 35.8 39.05-38.55 19.27c-1.23.61-2.19 1.71-2.46 3.05-.59 2.94 1.75 5.3 4.43 5.05l56.08-6.63 16.01 12.95c4.02 3.39 10.27 2.66 13.32-2.09C2.84 7.43 2.42 3.09 0 0" style="fill:#fff;fill-opacity:1;fill-rule:nonzero;stroke:none;stroke-width:28.4444" transform="matrix(.03516 0 0 .03516 13.434 651.805)" />
    <path d="m0 0-.17-2.49c-1.6-.54-3.19-1.12-4.76-1.74C-3.24-2.87-1.6-1.46 0 0" style="fill:#fff;fill-opacity:1;fill-rule:nonzero;stroke:none;stroke-width:28.4444" transform="matrix(.03516 0 0 .03516 9.385 645.264)" />
  </g>
</svg>